<?xml version="1.0" standalone="no"?>
<!DOCTYPE svg PUBLIC "-//W3C//DTD SVG 20010904//EN"
 "http://www.w3.org/TR/2001/REC-SVG-20010904/DTD/svg10.dtd">
<svg version="1.0" xmlns="http://www.w3.org/2000/svg"
 width="1200.000000pt" height="1200.000000pt" viewBox="0 0 1200.000000 1200.000000"
 preserveAspectRatio="xMidYMid meet">
<metadata>
Created by potrace 1.11, written by Peter Selinger 2001-2013
</metadata>
<g transform="translate(0.000000,1200.000000) scale(0.100000,-0.100000)"
fill="#000000" stroke="none">
<path d="M5868 8155 c-2 -2 -34 -5 -73 -9 -129 -10 -285 -42 -435 -87 -73 -22
-250 -88 -265 -99 -5 -4 -44 -24 -85 -45 -72 -37 -312 -190 -341 -217 -8 -7
-40 -35 -73 -62 -226 -191 -430 -456 -552 -722 -19 -40 -40 -74 -47 -75 -7 0
-774 -1 -1704 -1 -931 -1 -1693 -2 -1693 -4 0 -1 33 -43 72 -92 40 -50 127
-157 192 -240 l120 -149 1442 1 c1438 1 1443 1 1439 -19 -2 -11 -6 -36 -10
-57 -3 -20 -11 -38 -18 -40 -6 -2 -468 -3 -1024 -3 -557 1 -1013 0 -1013 -1 0
-1 86 -109 191 -240 l191 -239 830 -1 c910 -1 848 4 848 -61 0 -17 2 -37 5
-45 4 -11 -70 -13 -422 -12 -236 1 -431 -1 -435 -3 -4 -2 79 -110 184 -241
l190 -237 309 -1 c170 0 311 -3 313 -5 2 -2 29 -53 60 -114 112 -224 243 -405
418 -577 365 -360 824 -571 1348 -618 59 -5 311 -3 382 3 326 30 669 149 953
331 178 114 376 290 500 446 33 41 63 77 66 80 22 19 159 243 205 336 36 72
63 114 73 115 9 0 149 1 312 2 l297 2 191 239 c105 131 191 239 191 241 0 1
-190 1 -422 1 -233 -1 -428 0 -435 2 -7 2 -10 15 -7 30 4 23 11 66 13 82 1 3
374 5 831 4 456 0 833 2 838 5 4 3 46 53 92 111 47 58 90 112 97 120 29 35
193 243 193 244 0 1 -459 2 -1021 2 -670 -1 -1023 2 -1027 9 -4 6 -7 17 -9 25
-1 8 -5 30 -8 48 -6 31 -5 32 32 33 21 0 671 1 1444 1 l1406 1 184 230 c101
126 187 235 191 242 6 9 -384 12 -1680 13 -928 0 -1695 1 -1704 1 -11 1 -36
39 -73 116 -225 455 -615 825 -1081 1023 -182 77 -390 137 -544 156 -25 3 -67
8 -95 12 -47 6 -342 13 -347 9z m366 -501 c478 -67 902 -338 1173 -750 99
-150 209 -419 237 -576 39 -226 40 -469 1 -658 -56 -270 -165 -505 -334 -720
-36 -47 -203 -216 -257 -261 -174 -147 -502 -302 -709 -336 -16 -3 -64 -11
-105 -18 -136 -24 -379 -19 -555 11 -106 18 -290 79 -428 143 -57 27 -237 140
-302 191 -26 20 -246 240 -268 268 -55 70 -148 220 -189 305 -200 409 -229
868 -81 1290 198 570 678 983 1283 1104 124 24 384 28 534 7z"/>
<path d="M5995 6460 c-182 -5 -192 -6 -241 -32 -147 -78 -207 -259 -134 -406
33 -66 76 -109 143 -144 37 -20 61 -23 204 -28 143 -4 165 -7 189 -26 37 -27
47 -67 29 -111 -24 -57 -53 -63 -315 -63 l-230 0 0 -100 0 -100 258 0 c309 0
327 4 413 89 64 64 89 124 89 211 0 87 -25 147 -89 211 -77 77 -117 89 -290
89 -160 0 -197 12 -219 71 -12 31 -11 41 2 73 26 62 51 67 324 64 l237 -3 -2
90 c-1 50 -2 95 -2 102 -1 15 -120 19 -366 13z"/>
</g>
</svg>
